<?xml version="1.0" standalone="no"?>
<!DOCTYPE svg PUBLIC "-//W3C//DTD SVG 20010904//EN"
 "http://www.w3.org/TR/2001/REC-SVG-20010904/DTD/svg10.dtd">
<svg version="1.0" xmlns="http://www.w3.org/2000/svg"
 width="571.000000pt" height="571.000000pt" viewBox="0 0 571.000000 571.000000"
 preserveAspectRatio="xMidYMid meet">
<metadata>
Created by potrace 1.14, written by Peter Selinger 2001-2017
</metadata>
<g transform="translate(0.000000,571.000000) scale(0.100000,-0.100000)"
fill="#000000" stroke="none">
<path d="M0 3455 l0 -2195 660 0 659 0 1 -43 c0 -23 0 -51 0 -62 0 -11 0 -31
1 -45 0 -14 0 -31 0 -37 -1 -7 -1 -21 -1 -30 0 -10 -1 -47 -1 -83 -1 -36 0
-76 1 -90 1 -14 1 -32 1 -40 -1 -8 -1 -26 0 -40 0 -14 0 -31 0 -37 -2 -27 -3
-289 -1 -323 0 -8 0 -26 -1 -40 0 -14 -1 -29 -1 -35 1 -5 1 -39 1 -75 0 -36 0
-74 1 -85 1 -34 0 -64 -1 -72 -1 -4 -1 -20 0 -35 l1 -28 2195 0 2195 0 0 2195
0 2195 -660 0 -660 0 0 600 0 600 -2195 0 -2195 0 0 -2195z"/>
</g>
</svg>
